<svg xmlns="http://www.w3.org/2000/svg" viewBox="0 0 200 80" width="200" height="80">
  <defs>
    <linearGradient id="coffeeGradient" x1="0%" y1="0%" x2="100%" y2="100%">
      <stop offset="0%" style="stop-color:#8B4513;stop-opacity:1" />
      <stop offset="100%" style="stop-color:#654321;stop-opacity:1" />
    </linearGradient>
  </defs>

  <!-- Coffee cup -->
  <ellipse cx="30" cy="50" rx="25" ry="15" fill="url(#coffeeGradient)" stroke="#654321" stroke-width="2"/>
  <rect x="20" y="35" width="20" height="25" rx="2" fill="url(#coffeeGradient)" stroke="#654321" stroke-width="2"/>
  <line x1="15" y1="40" x2="45" y2="40" stroke="#654321" stroke-width="2"/>

  <!-- Steam -->
  <path d="M 25 25 Q 20 15 25 10 Q 30 5 35 10 Q 40 15 35 25" fill="none" stroke="#E0E0E0" stroke-width="3" opacity="0.7"/>
  <path d="M 30 20 Q 25 10 30 5 Q 35 0 40 5 Q 45 10 40 20" fill="none" stroke="#E0E0E0" stroke-width="2" opacity="0.5"/>
  <path d="M 35 18 Q 30 8 35 3 Q 40 -2 45 3 Q 50 8 45 18" fill="none" stroke="#E0E0E0" stroke-width="1.5" opacity="0.3"/>

  <!-- Text -->
  <text x="70" y="30" font-family="Arial, sans-serif" font-size="18" font-weight="bold" fill="#8B4513">Trail's</text>
  <text x="70" y="50" font-family="Arial, sans-serif" font-size="18" font-weight="bold" fill="#654321">Coffee</text>

  <!-- Bitcoin symbol -->
  <circle cx="160" cy="25" r="8" fill="#F7931A" stroke="#F7931A" stroke-width="1"/>
  <path d="M 152 25 L 154 23 L 158 23 L 160 25 L 158 27 L 154 27 Z" fill="white"/>
  <path d="M 155 20 L 155 30 M 157 20 L 157 30" stroke="white" stroke-width="1"/>
  <text x="155" y="26" font-family="Arial, sans-serif" font-size="6" font-weight="bold" fill="white" text-anchor="middle">₿</text>
</svg>
